<svg preserveAspectRatio="none" width="100%" height="100%" overflow="visible" style="display: block;" viewBox="0 0 20.919 21.0023" fill="none" xmlns="http://www.w3.org/2000/svg">
<g id="Group 19">
<path id="Vector" d="M12.9836 20.1885C13.0214 20.2832 13.0872 20.364 13.1721 20.42C13.2569 20.4761 13.3569 20.5048 13.4584 20.5021C13.56 20.4995 13.6583 20.4658 13.7402 20.4054C13.8221 20.3451 13.8837 20.261 13.9167 20.1645L20.3896 1.1645C20.4215 1.07589 20.4275 0.980003 20.4071 0.888052C20.3867 0.796101 20.3406 0.711891 20.2743 0.645275C20.208 0.578659 20.1241 0.532393 20.0325 0.51189C19.941 0.491386 19.8455 0.497494 19.7572 0.529498L0.836398 7.0295C0.740296 7.06259 0.656576 7.12442 0.596474 7.20667C0.536372 7.28892 0.502765 7.38767 0.500163 7.48966C0.497562 7.59164 0.526091 7.69199 0.581921 7.77722C0.637751 7.86246 0.718209 7.92851 0.812498 7.9665L8.70946 11.1465C8.9591 11.2469 9.18592 11.397 9.37623 11.5877C9.56655 11.7785 9.71642 12.006 9.81682 12.2565L12.9836 20.1885Z" stroke="var(--stroke-0, white)" stroke-linecap="round" stroke-linejoin="round"/>
<path id="Vector_2" d="M20.2711 0.649536L9.37671 11.5885" stroke="var(--stroke-0, white)" stroke-linecap="round" stroke-linejoin="round"/>
</g>
</svg>
