<svg preserveAspectRatio="none" width="100%" height="100%" overflow="visible" style="display: block;" viewBox="0 0 20.9167 19" fill="none" xmlns="http://www.w3.org/2000/svg">
<g id="Group 15">
<path id="Vector" d="M14.4417 18.5V16.5C14.4417 15.4391 14.022 14.4217 13.275 13.6716C12.528 12.9214 11.5148 12.5 10.4583 12.5H4.48333C3.42689 12.5 2.41371 12.9214 1.66669 13.6716C0.919671 14.4217 0.5 15.4391 0.5 16.5V18.5" stroke="var(--stroke-0, white)" stroke-linecap="round" stroke-linejoin="round"/>
<path id="Vector_2" d="M14.4416 0.628052C15.2958 0.850421 16.0523 1.35132 16.5923 2.05211C17.1323 2.75291 17.4253 3.61394 17.4253 4.50005C17.4253 5.38616 17.1323 6.24719 16.5923 6.94799C16.0523 7.64879 15.2958 8.14968 14.4416 8.37205" stroke="var(--stroke-0, white)" stroke-linecap="round" stroke-linejoin="round"/>
<path id="Vector_3" d="M20.4167 18.5V16.5C20.4161 15.6137 20.1223 14.7528 19.5816 14.0523C19.0408 13.3519 18.2838 12.8516 17.4292 12.63" stroke="var(--stroke-0, white)" stroke-linecap="round" stroke-linejoin="round"/>
<path id="Vector_4" d="M7.47092 8.5C9.67085 8.5 11.4542 6.70914 11.4542 4.5C11.4542 2.29086 9.67085 0.5 7.47092 0.5C5.27098 0.5 3.48758 2.29086 3.48758 4.5C3.48758 6.70914 5.27098 8.5 7.47092 8.5Z" stroke="var(--stroke-0, white)" stroke-linecap="round" stroke-linejoin="round"/>
</g>
</svg>
