<svg preserveAspectRatio="none" width="100%" height="100%" overflow="visible" style="display: block;" viewBox="0 0 19 19" fill="none" xmlns="http://www.w3.org/2000/svg">
<g id="Group 26">
<path id="Vector" d="M6.5 0.5H1.5C0.947715 0.5 0.5 0.947715 0.5 1.5V8.5C0.5 9.05229 0.947715 9.5 1.5 9.5H6.5C7.05228 9.5 7.5 9.05229 7.5 8.5V1.5C7.5 0.947715 7.05228 0.5 6.5 0.5Z" stroke="var(--stroke-0, white)" stroke-linecap="round" stroke-linejoin="round"/>
<path id="Vector_2" d="M17.5 0.5H12.5C11.9477 0.5 11.5 0.947715 11.5 1.5V4.5C11.5 5.05228 11.9477 5.5 12.5 5.5H17.5C18.0523 5.5 18.5 5.05228 18.5 4.5V1.5C18.5 0.947715 18.0523 0.5 17.5 0.5Z" stroke="var(--stroke-0, white)" stroke-linecap="round" stroke-linejoin="round"/>
<path id="Vector_3" d="M17.5 9.5H12.5C11.9477 9.5 11.5 9.94772 11.5 10.5V17.5C11.5 18.0523 11.9477 18.5 12.5 18.5H17.5C18.0523 18.5 18.5 18.0523 18.5 17.5V10.5C18.5 9.94772 18.0523 9.5 17.5 9.5Z" stroke="var(--stroke-0, white)" stroke-linecap="round" stroke-linejoin="round"/>
<path id="Vector_4" d="M6.5 13.5H1.5C0.947715 13.5 0.5 13.9477 0.5 14.5V17.5C0.5 18.0523 0.947715 18.5 1.5 18.5H6.5C7.05228 18.5 7.5 18.0523 7.5 17.5V14.5C7.5 13.9477 7.05228 13.5 6.5 13.5Z" stroke="var(--stroke-0, white)" stroke-linecap="round" stroke-linejoin="round"/>
</g>
</svg>
