<svg preserveAspectRatio="none" width="100%" height="100%" overflow="visible" style="display: block;" viewBox="0 0 20.9167 21" fill="none" xmlns="http://www.w3.org/2000/svg">
<g id="Group 24">
<path id="Vector" d="M17.4292 3.5L20.4167 0.5" stroke="var(--stroke-0, white)" stroke-linecap="round" stroke-linejoin="round"/>
<path id="Vector_2" d="M0.5 20.5L3.4875 17.5" stroke="var(--stroke-0, white)" stroke-linecap="round" stroke-linejoin="round"/>
<path id="Vector_3" d="M4.78208 18.8C5.00412 19.0237 5.26796 19.2013 5.55847 19.3224C5.84898 19.4435 6.16044 19.5059 6.475 19.5059C6.78956 19.5059 7.10102 19.4435 7.39153 19.3224C7.68204 19.2013 7.94588 19.0237 8.16792 18.8L10.4583 16.5L4.48333 10.5L2.19292 12.8C1.97011 13.023 1.79332 13.2879 1.67269 13.5796C1.55206 13.8714 1.48997 14.1841 1.48997 14.5C1.48997 14.8159 1.55206 15.1286 1.67269 15.4204C1.79332 15.7121 1.97011 15.977 2.19292 16.2L4.78208 18.8Z" stroke="var(--stroke-0, white)" stroke-linecap="round" stroke-linejoin="round"/>
<path id="Vector_4" d="M5.977 12L8.46659 9.5" stroke="var(--stroke-0, white)" stroke-linecap="round" stroke-linejoin="round"/>
<path id="Vector_5" d="M8.9646 15L11.4542 12.5" stroke="var(--stroke-0, white)" stroke-linecap="round" stroke-linejoin="round"/>
<path id="Vector_6" d="M10.4584 4.50003L16.4334 10.5L18.7238 8.20003C18.9466 7.97706 19.1234 7.71212 19.244 7.4204C19.3647 7.12867 19.4268 6.81591 19.4268 6.50003C19.4268 6.18416 19.3647 5.87139 19.244 5.57967C19.1234 5.28794 18.9466 5.023 18.7238 4.80003L16.1346 2.20003C15.9126 1.97629 15.6488 1.79876 15.3583 1.67763C15.0678 1.55649 14.7563 1.49414 14.4417 1.49414C14.1272 1.49414 13.8157 1.55649 13.5252 1.67763C13.2347 1.79876 12.9709 1.97629 12.7488 2.20003L10.4584 4.50003Z" stroke="var(--stroke-0, white)" stroke-linecap="round" stroke-linejoin="round"/>
</g>
</svg>
