<svg width="19" height="21" viewBox="0 0 19 21" fill="none" xmlns="http://www.w3.org/2000/svg">
<path d="M1.50303 12.4995C1.31387 12.5001 1.1284 12.4471 0.968186 12.3465C0.807969 12.2459 0.679576 12.1019 0.597923 11.9313C0.51627 11.7606 0.484709 11.5703 0.506907 11.3824C0.529105 11.1945 0.604151 11.0168 0.723326 10.8699L10.6196 0.67256C10.6938 0.586863 10.795 0.528953 10.9064 0.508335C11.0179 0.487717 11.1331 0.505615 11.2331 0.559093C11.333 0.612571 11.4119 0.69845 11.4566 0.802634C11.5013 0.906818 11.5093 1.02312 11.4793 1.13244L9.55998 7.15087C9.50338 7.30236 9.48438 7.46531 9.50459 7.62576C9.5248 7.7862 9.58363 7.93935 9.67602 8.07206C9.76842 8.20477 9.89163 8.31308 10.0351 8.38771C10.1785 8.46234 10.3379 8.50105 10.4996 8.50052H17.497C17.6861 8.49988 17.8716 8.55292 18.0318 8.6535C18.192 8.75408 18.3204 8.89806 18.4021 9.06872C18.4837 9.23937 18.5153 9.42969 18.4931 9.61757C18.4709 9.80545 18.3959 9.98318 18.2767 10.1301L8.38042 20.3274C8.30619 20.4131 8.20503 20.471 8.09355 20.4917C7.98207 20.5123 7.86689 20.4944 7.76693 20.4409C7.66696 20.3874 7.58814 20.3016 7.54341 20.1974C7.49867 20.0932 7.49068 19.9769 7.52075 19.8676L9.44002 13.8491C9.49662 13.6976 9.51562 13.5347 9.49541 13.3742C9.4752 13.2138 9.41637 13.0607 9.32398 12.9279C9.23158 12.7952 9.10838 12.6869 8.96493 12.6123C8.82148 12.5377 8.66207 12.499 8.50038 12.4995H1.50303Z" stroke="white" stroke-linecap="round" stroke-linejoin="round"/>
</svg>
