<svg preserveAspectRatio="none" width="100%" height="100%" overflow="visible" style="display: block;" viewBox="0 0 18.925 18" fill="none" xmlns="http://www.w3.org/2000/svg">
<path id="Vector" d="M7.67065 15.7102C7.67058 15.8764 7.71691 16.0394 7.80447 16.1809C7.89203 16.3223 8.01734 16.4366 8.16635 16.5109L9.95909 17.4056C10.0958 17.4738 10.2477 17.506 10.4003 17.4991C10.553 17.4922 10.7013 17.4464 10.8313 17.3662C10.9612 17.286 11.0685 17.1739 11.1429 17.0407C11.2172 16.9074 11.2562 16.7574 11.2561 16.6049V10.3419C11.2563 9.89843 11.4215 9.47086 11.7196 9.14205L18.1941 1.99417C18.3101 1.86584 18.3864 1.70669 18.4138 1.53598C18.4411 1.36526 18.4183 1.1903 18.3481 1.03224C18.278 0.874186 18.1634 0.739804 18.0184 0.645348C17.8733 0.550892 17.7039 0.500408 17.5307 0.5H1.39605C1.2227 0.500063 1.05308 0.550297 0.90775 0.644619C0.762418 0.73894 0.647605 0.873301 0.577217 1.03143C0.50683 1.18955 0.483889 1.36466 0.511173 1.53553C0.538457 1.70641 0.614795 1.86572 0.730941 1.99417L7.20723 9.14205C7.5053 9.47086 7.67045 9.89843 7.67065 10.3419V15.7102Z" stroke="var(--stroke-0, white)" stroke-linecap="round" stroke-linejoin="round"/>
</svg>
