<svg preserveAspectRatio="none" width="100%" height="100%" overflow="visible" style="display: block;" viewBox="0 0 18.925 20" fill="none" xmlns="http://www.w3.org/2000/svg">
<g id="Group 19">
<path id="Vector" d="M8.46667 3.5C11.4954 3.57835 14.4555 2.58751 16.8317 0.700001C16.9796 0.588574 17.1555 0.520719 17.3397 0.504042C17.5239 0.487364 17.7091 0.522521 17.8745 0.605574C18.0399 0.688626 18.179 0.816294 18.2763 0.97427C18.3735 1.13225 18.425 1.31429 18.425 1.5V13.5C18.425 13.6857 18.3735 13.8678 18.2763 14.0257C18.179 14.1837 18.0399 14.3114 17.8745 14.3944C17.7091 14.4775 17.5239 14.5126 17.3397 14.496C17.1555 14.4793 16.9796 14.4114 16.8317 14.3C14.4555 12.4125 11.4954 11.4217 8.46667 11.5H2.49167C1.96344 11.5 1.45686 11.2893 1.08335 10.9142C0.709836 10.5391 0.5 10.0304 0.5 9.5V5.5C0.5 4.96957 0.709836 4.46086 1.08335 4.08579C1.45686 3.71071 1.96344 3.5 2.49167 3.5H8.46667Z" stroke="var(--stroke-0, white)" stroke-linecap="round" stroke-linejoin="round"/>
<path id="Vector_2" d="M3.4876 11.5C3.4876 14.0964 4.32622 16.6228 5.8776 18.7C6.19453 19.1243 6.66635 19.4049 7.18927 19.4799C7.71218 19.5549 8.24335 19.4183 8.66593 19.1C9.08851 18.7817 9.36788 18.3079 9.44258 17.7828C9.51728 17.2577 9.3812 16.7243 9.06427 16.3C8.03002 14.9152 7.47093 13.231 7.47093 11.5" stroke="var(--stroke-0, white)" stroke-linecap="round" stroke-linejoin="round"/>
<path id="Vector_3" d="M5.47908 3.5V11.5" stroke="var(--stroke-0, white)" stroke-linecap="round" stroke-linejoin="round"/>
</g>
</svg>
