<svg width="20" height="17" viewBox="0 0 20 17" fill="none" xmlns="http://www.w3.org/2000/svg">
<path d="M19.1667 3.61167L17.0927 5.68575L15.5371 1.8487C15.3904 1.45601 15.1282 1.11699 14.7849 0.876324C14.4417 0.635657 14.0336 0.504642 13.6144 0.500547H6.10002C5.67743 0.490841 5.26197 0.610487 4.90926 0.843461C4.55656 1.07643 4.28346 1.41161 4.12653 1.80411L2.57408 5.68575L0.5 3.61167" stroke="white" stroke-linecap="round" stroke-linejoin="round"/>
<path d="M4.64816 9.8338H4.65779" stroke="white" stroke-linecap="round" stroke-linejoin="round"/>
<path d="M15.0186 9.8338H15.0282" stroke="white" stroke-linecap="round" stroke-linejoin="round"/>
<path d="M17.0927 5.68561H2.57408C1.4286 5.68561 0.5 6.61421 0.5 7.75969V11.9079C0.5 13.0533 1.4286 13.9819 2.57408 13.9819H17.0927C18.2381 13.9819 19.1667 13.0533 19.1667 11.9079V7.75969C19.1667 6.61421 18.2381 5.68561 17.0927 5.68561Z" stroke="white" stroke-linecap="round" stroke-linejoin="round"/>
<path d="M2.57408 13.982V16.0561" stroke="white" stroke-linecap="round" stroke-linejoin="round"/>
<path d="M17.0927 13.982V16.0561" stroke="white" stroke-linecap="round" stroke-linejoin="round"/>
</svg>
