<svg preserveAspectRatio="none" width="100%" height="100%" overflow="visible" style="display: block;" viewBox="0 0 69.527 58.3614" fill="none" xmlns="http://www.w3.org/2000/svg">
<g id="Group 1261153367">
<path id="Vector" d="M39.4807 58.3614H34.7125C34.7125 49.0204 42.3114 41.4231 51.6524 41.4231C54.5451 41.4231 57.4028 42.1653 59.9141 43.572L57.5856 47.733C55.7832 46.7253 53.7329 46.1913 51.6524 46.1913C44.9419 46.1913 39.4807 51.6509 39.4807 58.3614Z" fill="var(--fill-0, #ED1B24)"/>
<path id="Vector_2" d="M29.9921 58.3614H25.2239C25.2239 43.7881 37.0793 31.9327 51.6525 31.9327C56.2316 31.9327 60.7455 33.1232 64.7031 35.3754L62.346 39.5206C59.1052 37.6769 55.4067 36.701 51.6525 36.701C39.7097 36.701 29.9921 46.417 29.9921 58.3614Z" fill="var(--fill-0, #ED1B24)"/>
<path id="Vector_3" d="M20.2936 58.1579L15.5253 58.1277C15.5857 48.5261 19.3717 39.511 26.1823 32.7401C32.9977 25.9661 42.0414 22.2358 51.6509 22.2358C57.9259 22.2358 64.1071 23.8697 69.527 26.9611L67.1635 31.103C62.4621 28.4217 57.0978 27.004 51.6509 27.004C34.4695 27.004 20.4016 40.9796 20.292 58.1595L20.2936 58.1579Z" fill="var(--fill-0, #ED1B24)"/>
<path id="Vector_4" d="M18.078 16.5568C15.1424 16.5568 12.2481 15.7939 9.70982 14.3476L12.0685 10.204C13.89 11.2403 15.9673 11.7886 18.078 11.7886C24.6963 11.7886 30.0399 6.61033 30.2433 0L35.01 0.146225C34.8749 4.56 33.0518 8.6861 29.881 11.768C26.7021 14.8562 22.5109 16.5552 18.0796 16.5552L18.078 16.5568Z" fill="var(--fill-0, #ED1B24)"/>
<path id="Vector_5" d="M18.078 26.0456C13.4862 26.0456 8.96114 24.8488 4.99557 22.5855L7.35902 18.4435C10.6078 20.2967 14.3143 21.2774 18.078 21.2774C29.8014 21.2774 39.5159 11.7457 39.7336 0.0286172L44.5018 0.117624C44.3731 7.07127 41.5662 13.5894 36.6009 18.4689C31.6292 23.3547 25.0507 26.0456 18.078 26.0456Z" fill="var(--fill-0, #ED1B24)"/>
<g id="Group">
<path id="Vector_6" d="M18.078 30.9759C19.2303 30.9759 20.3684 30.9124 21.4889 30.7884L18.0303 35.7441C11.6902 35.7362 5.45656 34.0626 0.000131554 30.9012L2.38901 26.7751C7.13497 29.5232 12.5596 30.9759 18.078 30.9759Z" fill="var(--fill-0, #ED1B24)"/>
<path id="Vector_7" d="M54.202 0.104908C54.1194 6.36875 52.4489 12.3783 49.3893 17.6678L43.2034 18.3147C47.0338 13.1905 49.3432 6.871 49.4338 0.0413322L54.202 0.104908Z" fill="var(--fill-0, #ED1B24)"/>
</g>
</g>
</svg>
