<svg preserveAspectRatio="none" width="100%" height="100%" overflow="visible" style="display: block;" viewBox="0 0 16.9334 21" fill="none" xmlns="http://www.w3.org/2000/svg">
<g id="Group 25">
<path id="Vector" d="M2.49167 20.5C1.96344 20.5 1.45686 20.2893 1.08335 19.9142C0.709836 19.5391 0.5 19.0304 0.5 18.5V2.5C0.5 1.96957 0.709836 1.46086 1.08335 1.08579C1.45686 0.710717 1.96344 0.500003 2.49167 0.500003H10.4583C10.7736 0.49949 11.0858 0.561605 11.377 0.682772C11.6682 0.803939 11.9327 0.981763 12.1552 1.206L15.7283 4.794C15.9522 5.01751 16.1298 5.28335 16.2508 5.57616C16.3718 5.86898 16.4338 6.18297 16.4333 6.5V18.5C16.4333 19.0304 16.2235 19.5391 15.85 19.9142C15.4765 20.2893 14.9699 20.5 14.4417 20.5H2.49167Z" stroke="var(--stroke-0, white)" stroke-linecap="round" stroke-linejoin="round"/>
<path id="Vector_2" d="M10.4584 0.5V5.5C10.4584 5.76522 10.5633 6.01957 10.7501 6.20711C10.9368 6.39464 11.1901 6.5 11.4542 6.5H16.4334" stroke="var(--stroke-0, white)" stroke-linecap="round" stroke-linejoin="round"/>
<path id="Vector_3" d="M4.48322 11.5H6.47489" stroke="var(--stroke-0, white)" stroke-linecap="round" stroke-linejoin="round"/>
<path id="Vector_4" d="M10.4584 11.5H12.4501" stroke="var(--stroke-0, white)" stroke-linecap="round" stroke-linejoin="round"/>
<path id="Vector_5" d="M4.48322 15.5H6.47489" stroke="var(--stroke-0, white)" stroke-linecap="round" stroke-linejoin="round"/>
<path id="Vector_6" d="M10.4584 15.5H12.4501" stroke="var(--stroke-0, white)" stroke-linecap="round" stroke-linejoin="round"/>
</g>
</svg>
