<svg preserveAspectRatio="none" width="100%" height="100%" overflow="visible" style="display: block;" viewBox="0 0 20.9583 20.9583" fill="none" xmlns="http://www.w3.org/2000/svg">
<g id="Group 1261153334">
<path id="Vector" d="M8.26148 9.37035C10.711 9.37035 12.6967 7.38466 12.6967 4.93518C12.6967 2.4857 10.711 0.5 8.26148 0.5C5.812 0.5 3.8263 2.4857 3.8263 4.93518C3.8263 7.38466 5.812 9.37035 8.26148 9.37035Z" stroke="var(--stroke-0, white)" stroke-linecap="round" stroke-linejoin="round"/>
<path id="Vector_2" d="M8.5942 13.8056H4.93518C3.75889 13.8056 2.63079 14.2729 1.79903 15.1046C0.967276 15.9364 0.5 17.0645 0.5 18.2408V20.4583" stroke="var(--stroke-0, white)" stroke-linecap="round" stroke-linejoin="round"/>
<path id="Vector_3" d="M13.8055 14.3599V12.6967C13.8055 12.1086 14.0391 11.5445 14.455 11.1287C14.8708 10.7128 15.4349 10.4792 16.023 10.4792C16.6112 10.4792 17.1752 10.7128 17.5911 11.1287C18.007 11.5445 18.2406 12.1086 18.2406 12.6967V14.3599" stroke="var(--stroke-0, white)" stroke-linecap="round" stroke-linejoin="round"/>
<path id="Vector_4" d="M19.4615 14.9143H12.5847C12.0342 14.9143 11.5879 15.3606 11.5879 15.9111V19.4615C11.5879 20.012 12.0342 20.4583 12.5847 20.4583H19.4615C20.012 20.4583 20.4583 20.012 20.4583 19.4615V15.9111C20.4583 15.3606 20.012 14.9143 19.4615 14.9143Z" stroke="var(--stroke-0, white)" stroke-linecap="round" stroke-linejoin="round"/>
</g>
</svg>
