<svg preserveAspectRatio="none" width="100%" height="100%" overflow="visible" style="display: block;" viewBox="0 0 20.9228 20.9983" fill="none" xmlns="http://www.w3.org/2000/svg">
<g id="Group 18">
<path id="Vector" d="M2.35318 7.11521C2.20783 6.45774 2.23015 5.77406 2.41807 5.12755C2.60598 4.48105 2.95342 3.89266 3.42815 3.41694C3.90289 2.94121 4.48955 2.59356 5.13375 2.40621C5.77796 2.21886 6.45884 2.19788 7.11326 2.34521C7.47347 1.77952 7.96968 1.31397 8.55618 0.9915C9.14267 0.669027 9.80057 0.5 10.4692 0.5C11.1379 0.5 11.7958 0.669027 12.3823 0.9915C12.9688 1.31397 13.465 1.77952 13.8252 2.34521C14.4806 2.19724 15.1627 2.21812 15.8079 2.40593C16.4531 2.59373 17.0406 2.94236 17.5156 3.41937C17.9906 3.89638 18.3378 4.48629 18.5248 5.13422C18.7118 5.78214 18.7326 6.46705 18.5853 7.12521C19.1486 7.48692 19.6122 7.98522 19.9333 8.57417C20.2545 9.16311 20.4228 9.82376 20.4228 10.4952C20.4228 11.1667 20.2545 11.8273 19.9333 12.4163C19.6122 13.0052 19.1486 13.5035 18.5853 13.8652C18.732 14.5224 18.7111 15.2061 18.5245 15.853C18.338 16.4999 17.9918 17.089 17.518 17.5657C17.0443 18.0425 16.4583 18.3914 15.8145 18.5801C15.1707 18.7688 14.4899 18.7912 13.8351 18.6452C13.4754 19.2131 12.9788 19.6806 12.3913 20.0045C11.8038 20.3284 11.1444 20.4983 10.4742 20.4983C9.80398 20.4983 9.14459 20.3284 8.5571 20.0045C7.9696 19.6806 7.473 19.2131 7.11326 18.6452C6.45884 18.7925 5.77796 18.7716 5.13375 18.5842C4.48955 18.3969 3.90289 18.0492 3.42815 17.5735C2.95342 17.0978 2.60598 16.5094 2.41807 15.8629C2.23015 15.2164 2.20783 14.5327 2.35318 13.8752C1.78551 13.5145 1.31793 13.0154 0.993917 12.4244C0.669907 11.8335 0.5 11.1698 0.5 10.4952C0.5 9.82061 0.669907 9.15696 0.993917 8.566C1.31793 7.97504 1.78551 7.47597 2.35318 7.11521Z" stroke="var(--stroke-0, white)" stroke-linecap="round" stroke-linejoin="round"/>
<path id="Vector_2" d="M6.48595 6.49524H14.4526" stroke="var(--stroke-0, white)" stroke-linecap="round" stroke-linejoin="round"/>
<path id="Vector_3" d="M6.48595 10.4952H14.4526" stroke="var(--stroke-0, white)" stroke-linecap="round" stroke-linejoin="round"/>
<path id="Vector_4" d="M11.4651 15.4952L6.48595 14.4952H7.48178C8.53823 14.4952 9.55141 14.0738 10.2984 13.3237C11.0454 12.5735 11.4651 11.5561 11.4651 10.4952C11.4651 9.43437 11.0454 8.41696 10.2984 7.66681C9.55141 6.91667 8.53823 6.49524 7.48178 6.49524" stroke="var(--stroke-0, white)" stroke-linecap="round" stroke-linejoin="round"/>
</g>
</svg>
