<svg preserveAspectRatio="none" width="100%" height="100%" overflow="visible" style="display: block;" viewBox="0 0 16.9333 21" fill="none" xmlns="http://www.w3.org/2000/svg">
<g id="Group 17">
<path id="Vector" d="M11.4541 0.5H5.47907C4.92909 0.5 4.48324 0.947715 4.48324 1.5V3.5C4.48324 4.05228 4.92909 4.5 5.47907 4.5H11.4541C12.0041 4.5 12.4499 4.05228 12.4499 3.5V1.5C12.4499 0.947715 12.0041 0.5 11.4541 0.5Z" stroke="var(--stroke-0, white)" stroke-linecap="round" stroke-linejoin="round"/>
<path id="Vector_2" d="M12.45 2.5H14.4417C14.9699 2.5 15.4765 2.71071 15.85 3.08579C16.2235 3.46086 16.4333 3.96957 16.4333 4.5V18.5C16.4333 19.0304 16.2235 19.5391 15.85 19.9142C15.4765 20.2893 14.9699 20.5 14.4417 20.5H2.49167C1.96344 20.5 1.45686 20.2893 1.08335 19.9142C0.709836 19.5391 0.5 19.0304 0.5 18.5V4.5C0.5 3.96957 0.709836 3.46086 1.08335 3.08579C1.45686 2.71071 1.96344 2.5 2.49167 2.5H4.48333" stroke="var(--stroke-0, white)" stroke-linecap="round" stroke-linejoin="round"/>
<path id="Vector_3" d="M5.4791 12.5L7.47077 14.5L11.4541 10.5" stroke="var(--stroke-0, white)" stroke-linecap="round" stroke-linejoin="round"/>
</g>
</svg>
