<svg preserveAspectRatio="none" width="100%" height="100%" overflow="visible" style="display: block;" viewBox="0 0 20.9168 19.1218" fill="none" xmlns="http://www.w3.org/2000/svg">
<g id="Group 22">
<path id="Vector" d="M9.46254 14.5005L11.4542 16.5005C11.6504 16.6975 11.8832 16.8537 12.1395 16.9603C12.3958 17.0669 12.6705 17.1218 12.948 17.1218C13.2254 17.1218 13.5001 17.0669 13.7564 16.9603C14.0127 16.8537 14.2455 16.6975 14.4417 16.5005C14.6379 16.3035 14.7935 16.0697 14.8996 15.8123C15.0058 15.5549 15.0604 15.2791 15.0604 15.0005C15.0604 14.7219 15.0058 14.4461 14.8996 14.1887C14.7935 13.9313 14.6379 13.6975 14.4417 13.5005" stroke="var(--stroke-0, white)" stroke-linecap="round" stroke-linejoin="round"/>
<path id="Vector_2" d="M12.4501 11.5005L14.9397 14.0005C15.3358 14.3983 15.8732 14.6218 16.4334 14.6218C16.9937 14.6218 17.531 14.3983 17.9272 14.0005C18.3233 13.6027 18.5459 13.0631 18.5459 12.5005C18.5459 11.9379 18.3233 11.3983 17.9272 11.0005L14.0633 7.1205C13.5032 6.5587 12.7439 6.24314 11.9522 6.24314C11.1605 6.24314 10.4012 6.5587 9.84101 7.1205L8.96468 8.0005C8.56851 8.39833 8.0312 8.62183 7.47093 8.62183C6.91067 8.62183 6.37335 8.39833 5.97718 8.0005C5.58101 7.60268 5.35845 7.06311 5.35845 6.5005C5.35845 5.9379 5.58101 5.39833 5.97718 5.0005L8.77547 2.1905C9.68391 1.28065 10.8686 0.701056 12.142 0.543477C13.4154 0.385898 14.7048 0.659336 15.8061 1.3205L16.2741 1.6005C16.6981 1.85749 17.2023 1.94662 17.6882 1.8505L19.4209 1.5005" stroke="var(--stroke-0, white)" stroke-linecap="round" stroke-linejoin="round"/>
<path id="Vector_3" d="M19.4209 0.500489L20.4168 11.5005H18.4251" stroke="var(--stroke-0, white)" stroke-linecap="round" stroke-linejoin="round"/>
<path id="Vector_4" d="M1.49584 0.500489L0.500002 11.5005L6.97292 18.0005C7.36909 18.3983 7.9064 18.6218 8.46667 18.6218C9.02693 18.6218 9.56425 18.3983 9.96042 18.0005C10.3566 17.6027 10.5792 17.0631 10.5792 16.5005C10.5792 15.9379 10.3566 15.3983 9.96042 15.0005" stroke="var(--stroke-0, white)" stroke-linecap="round" stroke-linejoin="round"/>
<path id="Vector_5" d="M1.49585 1.50049H9.46252" stroke="var(--stroke-0, white)" stroke-linecap="round" stroke-linejoin="round"/>
</g>
</svg>
