<svg preserveAspectRatio="none" width="100%" height="100%" overflow="visible" style="display: block;" viewBox="0 0 16.9333 21.0034" fill="none" xmlns="http://www.w3.org/2000/svg">
<g id="Group 1261153335">
<path id="Vector" d="M16.4333 11.5004C16.4333 16.5004 12.9479 19.0005 8.80525 20.4505C8.58832 20.5243 8.35268 20.5207 8.13804 20.4405C3.98542 19.0005 0.5 16.5004 0.5 11.5004V4.50045C0.5 4.23523 0.604918 3.98088 0.791673 3.79334C0.978428 3.60581 1.23172 3.50045 1.49583 3.50045C3.4875 3.50045 5.97708 2.30045 7.70983 0.78045C7.92081 0.599448 8.18918 0.5 8.46667 0.5C8.74415 0.5 9.01253 0.599448 9.2235 0.78045C10.9662 2.31045 13.4458 3.50045 15.4375 3.50045C15.7016 3.50045 15.9549 3.60581 16.1417 3.79334C16.3284 3.98088 16.4333 4.23523 16.4333 4.50045V11.5004Z" stroke="var(--stroke-0, white)" stroke-linecap="round" stroke-linejoin="round"/>
<path id="Vector_2" d="M2.86618 17.4105C3.29111 16.2626 4.05562 15.2729 5.05704 14.5741C6.05845 13.8753 7.24882 13.5009 8.46828 13.5012C9.68775 13.5015 10.8779 13.8766 11.879 14.5759C12.88 15.2752 13.644 16.2654 14.0683 17.4135" stroke="var(--stroke-0, white)" stroke-linecap="round" stroke-linejoin="round"/>
<path id="Vector_3" d="M8.46663 13.5005C10.6666 13.5005 12.45 11.7096 12.45 9.50049C12.45 7.29135 10.6666 5.50049 8.46663 5.50049C6.2667 5.50049 4.4833 7.29135 4.4833 9.50049C4.4833 11.7096 6.2667 13.5005 8.46663 13.5005Z" stroke="var(--stroke-0, white)" stroke-linecap="round" stroke-linejoin="round"/>
</g>
</svg>
