<svg width="27" height="24" viewBox="0 0 27 24" fill="none" xmlns="http://www.w3.org/2000/svg">
<g clip-path="url(#clip0_47_1827)">
<path d="M18.1539 23.9508V21.1939C18.1539 19.7293 17.6369 18.3385 16.7139 17.3047C15.7908 16.2708 14.5354 15.6924 13.2308 15.6924H5.84617C4.54156 15.6924 3.28617 16.2708 2.3631 17.3047C1.44002 18.3385 0.923096 19.7416 0.923096 21.1939V23.9508" fill="#ED1B24"/>
<path d="M18.1539 23.077V20.6155C18.1539 19.3108 17.6369 18.0555 16.7139 17.1324C15.7908 16.2093 14.5354 15.6924 13.2308 15.6924H5.84617C4.54156 15.6924 3.28617 16.2093 2.3631 17.1324C1.44002 18.0555 0.923096 19.3108 0.923096 20.6155V23.077" stroke="#ED1B24" stroke-width="1.5" stroke-linecap="round" stroke-linejoin="round"/>
<path d="M18.1538 1.08301C19.2123 1.35378 20.1477 1.96916 20.8123 2.8307C21.4769 3.69224 21.8461 4.7507 21.8461 5.84608C21.8461 6.94147 21.4892 7.99993 20.8123 8.86147C20.1477 9.72301 19.2123 10.3384 18.1538 10.6092" stroke="#ED1B24" stroke-width="1.5" stroke-linecap="round" stroke-linejoin="round"/>
<path d="M25.5385 23.0769V20.6154C25.5385 19.52 25.1693 18.4615 24.5047 17.6C23.84 16.7384 22.9047 16.1231 21.8462 15.8523" stroke="#ED1B24" stroke-width="1.5" stroke-linecap="round" stroke-linejoin="round"/>
<path d="M9.53843 10.7692C12.2584 10.7692 14.4615 8.56617 14.4615 5.84617C14.4615 3.12617 12.2584 0.923096 9.53843 0.923096C6.81843 0.923096 4.61536 3.12617 4.61536 5.84617C4.61536 8.56617 6.81843 10.7692 9.53843 10.7692Z" fill="#ED1B24" stroke="#ED1B24" stroke-width="1.5" stroke-linecap="round" stroke-linejoin="round"/>
</g>
<defs>
<clipPath id="clip0_47_1827">
<rect width="26.4615" height="24" fill="white"/>
</clipPath>
</defs>
</svg>
