<svg width="22" height="22" viewBox="0 0 22 22" fill="none" xmlns="http://www.w3.org/2000/svg">
<path d="M7.41667 0.75H1.86111C1.24746 0.75 0.75 1.24746 0.75 1.86111V9.63889C0.75 10.2525 1.24746 10.75 1.86111 10.75H7.41667C8.03032 10.75 8.52778 10.2525 8.52778 9.63889V1.86111C8.52778 1.24746 8.03032 0.75 7.41667 0.75Z" fill="#ED1B24" stroke="#ED1B24" stroke-width="1.5" stroke-linecap="round" stroke-linejoin="round"/>
<path d="M19.6389 0.75H14.0833C13.4697 0.75 12.9722 1.24746 12.9722 1.86111V5.19444C12.9722 5.80809 13.4697 6.30556 14.0833 6.30556H19.6389C20.2525 6.30556 20.75 5.80809 20.75 5.19444V1.86111C20.75 1.24746 20.2525 0.75 19.6389 0.75Z" fill="#ED1B24" stroke="#ED1B24" stroke-width="1.5" stroke-linecap="round" stroke-linejoin="round"/>
<path d="M19.6389 10.75H14.0833C13.4697 10.75 12.9722 11.2475 12.9722 11.8611V19.6389C12.9722 20.2525 13.4697 20.75 14.0833 20.75H19.6389C20.2525 20.75 20.75 20.2525 20.75 19.6389V11.8611C20.75 11.2475 20.2525 10.75 19.6389 10.75Z" fill="#ED1B24" stroke="#ED1B24" stroke-width="1.5" stroke-linecap="round" stroke-linejoin="round"/>
<path d="M7.41667 15.1943H1.86111C1.24746 15.1943 0.75 15.6918 0.75 16.3054V19.6388C0.75 20.2524 1.24746 20.7499 1.86111 20.7499H7.41667C8.03032 20.7499 8.52778 20.2524 8.52778 19.6388V16.3054C8.52778 15.6918 8.03032 15.1943 7.41667 15.1943Z" fill="#ED1B24" stroke="#ED1B24" stroke-width="1.5" stroke-linecap="round" stroke-linejoin="round"/>
</svg>
