<svg width="26" height="28" viewBox="0 0 26 28" fill="none" xmlns="http://www.w3.org/2000/svg">
<path d="M1.44882 16.7993C1.17559 16.8002 0.907694 16.7259 0.676269 16.5851C0.444845 16.4443 0.259388 16.2427 0.141444 16.0038C0.0235011 15.7649 -0.0220869 15.4984 0.00997693 15.2354C0.0420408 14.9724 0.15044 14.7236 0.322581 14.5179L14.6172 0.241583C14.7244 0.121609 14.8705 0.0405345 15.0315 0.011669C15.1926 -0.0171966 15.3589 0.00786152 15.5033 0.0827302C15.6477 0.157599 15.7616 0.277829 15.8262 0.423687C15.8908 0.569545 15.9023 0.732363 15.8589 0.885416L13.0866 9.31122C13.0049 9.5233 12.9774 9.75144 13.0066 9.97606C13.0358 10.2007 13.1208 10.4151 13.2543 10.6009C13.3877 10.7867 13.5657 10.9383 13.7729 11.0428C13.9801 11.1473 14.2103 11.2015 14.4439 11.2007H24.5512C24.8244 11.1998 25.0923 11.2741 25.3237 11.4149C25.5552 11.5557 25.7406 11.7573 25.8586 11.9962C25.9765 12.2351 26.0221 12.5016 25.99 12.7646C25.958 13.0276 25.8496 13.2764 25.6774 13.4821L11.3828 27.7584C11.2756 27.8784 11.1295 27.9595 10.9685 27.9883C10.8074 28.0172 10.6411 27.9921 10.4967 27.9173C10.3523 27.8424 10.2384 27.7222 10.1738 27.5763C10.1092 27.4305 10.0977 27.2676 10.1411 27.1146L12.9134 18.6888C12.9951 18.4767 13.0226 18.2486 12.9934 18.0239C12.9642 17.7993 12.8792 17.5849 12.7457 17.3991C12.6123 17.2133 12.4343 17.0617 12.2271 16.9572C12.0199 16.8527 11.7897 16.7985 11.5561 16.7993H1.44882Z" fill="#ED1B24"/>
</svg>
