<svg width="26" height="22" viewBox="0 0 26 22" fill="none" xmlns="http://www.w3.org/2000/svg">
<path d="M24.75 4.7507L22.0833 7.41737L20.0833 2.48404C19.8947 1.97915 19.5575 1.54327 19.1163 1.23384C18.675 0.924415 18.1503 0.755968 17.6113 0.750703H7.95C7.40667 0.738224 6.8725 0.892054 6.41903 1.19159C5.96555 1.49113 5.61442 1.92207 5.41267 2.4267L3.41667 7.41737L0.75 4.7507" stroke="#ED1B24" stroke-width="1.5" stroke-linecap="round" stroke-linejoin="round"/>
<path d="M22.0833 7.41699H3.41667C1.94391 7.41699 0.75 8.6109 0.75 10.0837V15.417C0.75 16.8898 1.94391 18.0837 3.41667 18.0837H22.0833C23.5561 18.0837 24.75 16.8898 24.75 15.417V10.0837C24.75 8.6109 23.5561 7.41699 22.0833 7.41699Z" fill="#ED1B24" stroke="#ED1B24" stroke-width="1.5" stroke-linecap="round" stroke-linejoin="round"/>
<path d="M6.08337 12.7502H6.09671H6.08337Z" fill="#ED1B24"/>
<path d="M6.08337 12.7502H6.09671" stroke="white" stroke-width="1.5" stroke-linecap="round" stroke-linejoin="round"/>
<path d="M19.4166 12.7502H19.43H19.4166Z" fill="#ED1B24"/>
<path d="M19.4166 12.7502H19.43" stroke="white" stroke-width="1.5" stroke-linecap="round" stroke-linejoin="round"/>
<path d="M3.41663 18.0837V20.7504" stroke="#ED1B24" stroke-width="1.5" stroke-linecap="round" stroke-linejoin="round"/>
<path d="M22.0834 18.0837V20.7504" stroke="#ED1B24" stroke-width="1.5" stroke-linecap="round" stroke-linejoin="round"/>
</svg>
