<svg width="20" height="24" viewBox="0 0 20 24" fill="none" xmlns="http://www.w3.org/2000/svg">
<path d="M14.25 3H16.5C17.0967 3 17.669 3.23705 18.091 3.65901C18.5129 4.08097 18.75 4.65326 18.75 5.25V21C18.75 21.5967 18.5129 22.169 18.091 22.591C17.669 23.0129 17.0967 23.25 16.5 23.25H3C2.40326 23.25 1.83097 23.0129 1.40901 22.591C0.987053 22.169 0.75 21.5967 0.75 21V5.25C0.75 4.65326 0.987053 4.08097 1.40901 3.65901C1.83097 3.23705 2.40326 3 3 3H5.25" fill="#ED1B24"/>
<path d="M14.25 3H16.5C17.0967 3 17.669 3.23705 18.091 3.65901C18.5129 4.08097 18.75 4.65326 18.75 5.25V21C18.75 21.5967 18.5129 22.169 18.091 22.591C17.669 23.0129 17.0967 23.25 16.5 23.25H3C2.40326 23.25 1.83097 23.0129 1.40901 22.591C0.987053 22.169 0.75 21.5967 0.75 21V5.25C0.75 4.65326 0.987053 4.08097 1.40901 3.65901C1.83097 3.23705 2.40326 3 3 3H5.25" stroke="#ED1B24" stroke-width="1.5" stroke-linecap="round" stroke-linejoin="round"/>
<path d="M13.125 0.75H6.375C5.75368 0.75 5.25 1.25368 5.25 1.875V4.125C5.25 4.74632 5.75368 5.25 6.375 5.25H13.125C13.7463 5.25 14.25 4.74632 14.25 4.125V1.875C14.25 1.25368 13.7463 0.75 13.125 0.75Z" fill="white" stroke="#ED1B24" stroke-width="1.5" stroke-linecap="round" stroke-linejoin="round"/>
<path d="M6.375 14.25L8.625 16.5L13.125 12" stroke="white" stroke-width="1.5" stroke-linecap="round" stroke-linejoin="round"/>
</svg>
