<svg width="22" height="20" viewBox="0 0 22 20" fill="none" xmlns="http://www.w3.org/2000/svg">
<path d="M14.75 18.75V16.75C14.75 15.6891 14.3286 14.6717 13.5784 13.9216C12.8283 13.1714 11.8109 12.75 10.75 12.75H4.75C3.68913 12.75 2.67172 13.1714 1.92157 13.9216C1.17143 14.6717 0.75 15.6891 0.75 16.75V18.75" stroke="black" stroke-width="1.5" stroke-linecap="round" stroke-linejoin="round"/>
<path d="M14.75 0.87793C15.6078 1.1003 16.3674 1.60119 16.9097 2.30199C17.452 3.00279 17.7462 3.86382 17.7462 4.74993C17.7462 5.63604 17.452 6.49707 16.9097 7.19787C16.3674 7.89867 15.6078 8.39956 14.75 8.62193" stroke="black" stroke-width="1.5" stroke-linecap="round" stroke-linejoin="round"/>
<path d="M20.75 18.7499V16.7499C20.7493 15.8636 20.4544 15.0027 19.9114 14.3022C19.3684 13.6017 18.6081 13.1015 17.75 12.8799" stroke="black" stroke-width="1.5" stroke-linecap="round" stroke-linejoin="round"/>
<path d="M7.75 8.75C9.95914 8.75 11.75 6.95914 11.75 4.75C11.75 2.54086 9.95914 0.75 7.75 0.75C5.54086 0.75 3.75 2.54086 3.75 4.75C3.75 6.95914 5.54086 8.75 7.75 8.75Z" stroke="black" stroke-width="1.5" stroke-linecap="round" stroke-linejoin="round"/>
</svg>
