<svg width="20" height="20" viewBox="0 0 20 20" fill="none" xmlns="http://www.w3.org/2000/svg">
<path d="M6.75 0.75H1.75C1.19772 0.75 0.75 1.19772 0.75 1.75V8.75C0.75 9.30229 1.19772 9.75 1.75 9.75H6.75C7.30228 9.75 7.75 9.30229 7.75 8.75V1.75C7.75 1.19772 7.30228 0.75 6.75 0.75Z" stroke="black" stroke-width="1.5" stroke-linecap="round" stroke-linejoin="round"/>
<path d="M17.75 0.75H12.75C12.1977 0.75 11.75 1.19772 11.75 1.75V4.75C11.75 5.30228 12.1977 5.75 12.75 5.75H17.75C18.3023 5.75 18.75 5.30228 18.75 4.75V1.75C18.75 1.19772 18.3023 0.75 17.75 0.75Z" stroke="black" stroke-width="1.5" stroke-linecap="round" stroke-linejoin="round"/>
<path d="M17.75 9.75H12.75C12.1977 9.75 11.75 10.1977 11.75 10.75V17.75C11.75 18.3023 12.1977 18.75 12.75 18.75H17.75C18.3023 18.75 18.75 18.3023 18.75 17.75V10.75C18.75 10.1977 18.3023 9.75 17.75 9.75Z" stroke="black" stroke-width="1.5" stroke-linecap="round" stroke-linejoin="round"/>
<path d="M6.75 13.75H1.75C1.19772 13.75 0.75 14.1977 0.75 14.75V17.75C0.75 18.3023 1.19772 18.75 1.75 18.75H6.75C7.30228 18.75 7.75 18.3023 7.75 17.75V14.75C7.75 14.1977 7.30228 13.75 6.75 13.75Z" stroke="black" stroke-width="1.5" stroke-linecap="round" stroke-linejoin="round"/>
</svg>
