<svg width="22" height="24" viewBox="0 0 22 24" fill="none" xmlns="http://www.w3.org/2000/svg">
<path d="M1.86448 13.9494C1.6543 13.9501 1.44823 13.8918 1.27021 13.7811C1.09219 13.6705 0.949529 13.5121 0.858803 13.3244C0.768078 13.1367 0.73301 12.9273 0.757675 12.7207C0.782339 12.514 0.865723 12.3185 0.99814 12.1569L11.994 0.939815C12.0765 0.84555 12.1889 0.781849 12.3127 0.759168C12.4366 0.736488 12.5646 0.756177 12.6756 0.815002C12.7867 0.873828 12.8743 0.968294 12.924 1.0829C12.9737 1.1975 12.9826 1.32543 12.9492 1.44568L10.8166 8.06596C10.7538 8.23259 10.7326 8.41184 10.7551 8.58833C10.7776 8.76482 10.8429 8.93328 10.9456 9.07926C11.0482 9.22525 11.1851 9.34439 11.3445 9.42648C11.5039 9.50857 11.681 9.55115 11.8607 9.55057H19.6355C19.8457 9.54986 20.0518 9.60822 20.2298 9.71885C20.4078 9.82949 20.5505 9.98787 20.6412 10.1756C20.7319 10.3633 20.767 10.5727 20.7423 10.7793C20.7177 10.986 20.6343 11.1815 20.5019 11.3431L9.50603 22.5602C9.42355 22.6545 9.31115 22.7181 9.18728 22.7408C9.06341 22.7635 8.93544 22.7438 8.82436 22.685C8.71329 22.6262 8.62571 22.5317 8.57601 22.4171C8.5263 22.3025 8.51743 22.1746 8.55083 22.0543L10.6834 15.434C10.7462 15.2674 10.7674 15.0882 10.7449 14.9117C10.7224 14.7352 10.6571 14.5667 10.5544 14.4207C10.4518 14.2748 10.3149 14.1556 10.1555 14.0735C9.99609 13.9914 9.81897 13.9488 9.63931 13.9494H1.86448Z" stroke="black" stroke-width="1.5" stroke-linecap="round" stroke-linejoin="round"/>
</svg>
