<svg width="23" height="19" viewBox="0 0 23 19" fill="none" xmlns="http://www.w3.org/2000/svg">
<path d="M21.4167 4.19506L19.1204 6.49137L17.3982 2.2432C17.2358 1.80844 16.9455 1.4331 16.5655 1.16664C16.1854 0.900191 15.7336 0.755139 15.2695 0.750606H6.95002C6.48216 0.73986 6.02217 0.872325 5.63168 1.13026C5.24119 1.38819 4.93883 1.75929 4.76509 2.19383L3.04631 6.49137L0.75 4.19506" stroke="black" stroke-width="1.5" stroke-linecap="round" stroke-linejoin="round"/>
<path d="M5.34265 11.0837H5.35413" stroke="black" stroke-width="1.5" stroke-linecap="round" stroke-linejoin="round"/>
<path d="M16.8241 11.0837H16.8356" stroke="black" stroke-width="1.5" stroke-linecap="round" stroke-linejoin="round"/>
<path d="M19.1204 6.49121H3.04631C1.77809 6.49121 0.75 7.5193 0.75 8.78752V13.3801C0.75 14.6483 1.77809 15.6764 3.04631 15.6764H19.1204C20.3887 15.6764 21.4167 14.6483 21.4167 13.3801V8.78752C21.4167 7.5193 20.3887 6.49121 19.1204 6.49121Z" stroke="black" stroke-width="1.5" stroke-linecap="round" stroke-linejoin="round"/>
<path d="M3.04626 15.6765V17.9728" stroke="black" stroke-width="1.5" stroke-linecap="round" stroke-linejoin="round"/>
<path d="M19.1205 15.6765V17.9728" stroke="black" stroke-width="1.5" stroke-linecap="round" stroke-linejoin="round"/>
</svg>
