<svg preserveAspectRatio="none" width="100%" height="100%" overflow="visible" style="display: block;" viewBox="0 0 6.00011 6.00011" fill="none" xmlns="http://www.w3.org/2000/svg">
<path id="Union" d="M4.92728 0.184111C5.17277 -0.0610082 5.5705 -0.0610819 5.81595 0.184111C6.0615 0.42966 6.0615 0.828211 5.81595 1.07376L3.88919 2.99954L5.81595 4.92728C6.06139 5.17283 6.06146 5.57044 5.81595 5.81595C5.57044 6.06146 5.17283 6.06139 4.92728 5.81595L2.99954 3.88919L1.07376 5.81595C0.828211 6.0615 0.42966 6.0615 0.184111 5.81595C-0.0610819 5.5705 -0.0610082 5.17277 0.184111 4.92728L2.11087 2.99954L0.184111 1.07376C-0.0613368 0.828202 -0.0614041 0.429627 0.184111 0.184111C0.429627 -0.0614041 0.828202 -0.0613368 1.07376 0.184111L2.99954 2.11087L4.92728 0.184111Z" fill="var(--fill-0, white)"/>
</svg>
