<svg preserveAspectRatio="none" width="100%" height="100%" overflow="visible" style="display: block;" viewBox="0 0 21.0042 21.0047" fill="none" xmlns="http://www.w3.org/2000/svg">
<g id="Group 22">
<path id="Vector" d="M13.2005 4.80369C13.0172 4.99062 12.9146 5.24194 12.9146 5.50369C12.9146 5.76544 13.0172 6.01676 13.2005 6.20369L14.8005 7.80369C14.9874 7.98692 15.2387 8.08955 15.5005 8.08955C15.7622 8.08955 16.0135 7.98692 16.2005 7.80369L19.3065 4.69869C19.6265 4.37669 20.1695 4.47869 20.2895 4.91669C20.5916 6.01557 20.5745 7.17776 20.2402 8.26728C19.906 9.35681 19.2683 10.3286 18.4019 11.0689C17.5354 11.8093 16.4761 12.2875 15.3477 12.4478C14.2194 12.608 13.0688 12.4436 12.0305 11.9737L4.12047 19.8837C3.72264 20.2814 3.18313 20.5048 2.62061 20.5047C2.0581 20.5046 1.51866 20.281 1.12097 19.8832C0.723275 19.4854 0.499906 18.9459 0.5 18.3833C0.500094 17.8208 0.723642 17.2814 1.12147 16.8837L9.03147 8.97369C8.56161 7.9354 8.39717 6.78477 8.5574 5.65644C8.71763 4.52811 9.19589 3.46874 9.93623 2.60231C10.6766 1.73587 11.6484 1.0982 12.7379 0.763918C13.8274 0.429633 14.9896 0.412558 16.0885 0.714692C16.5265 0.834692 16.6285 1.37669 16.3075 1.69869L13.2005 4.80369Z" stroke="var(--stroke-0, #B7B6BB)" stroke-linecap="round" stroke-linejoin="round"/>
</g>
</svg>
