<svg preserveAspectRatio="none" width="100%" height="100%" overflow="visible" style="display: block;" viewBox="0 0 21 19.1218" fill="none" xmlns="http://www.w3.org/2000/svg">
<g id="Group 21">
<path id="Vector" d="M9.5 14.5005L11.5 16.5005C11.697 16.6975 11.9308 16.8537 12.1882 16.9603C12.4456 17.0669 12.7214 17.1218 13 17.1218C13.2786 17.1218 13.5544 17.0669 13.8118 16.9603C14.0692 16.8537 14.303 16.6975 14.5 16.5005C14.697 16.3035 14.8532 16.0697 14.9598 15.8123C15.0665 15.5549 15.1213 15.2791 15.1213 15.0005C15.1213 14.7219 15.0665 14.4461 14.9598 14.1887C14.8532 13.9313 14.697 13.6975 14.5 13.5005" stroke="var(--stroke-0, #B7B6BB)" stroke-linecap="round" stroke-linejoin="round"/>
<path id="Vector_2" d="M12.5 11.5005L15 14.0005C15.3978 14.3983 15.9374 14.6218 16.5 14.6218C17.0626 14.6218 17.6022 14.3983 18 14.0005C18.3978 13.6027 18.6213 13.0631 18.6213 12.5005C18.6213 11.9379 18.3978 11.3983 18 11.0005L14.12 7.1205C13.5575 6.5587 12.795 6.24314 12 6.24314C11.205 6.24314 10.4425 6.5587 9.87998 7.1205L8.99998 8.0005C8.60216 8.39833 8.06259 8.62182 7.49998 8.62182C6.93738 8.62182 6.39781 8.39833 5.99998 8.0005C5.60216 7.60268 5.37866 7.06311 5.37866 6.5005C5.37866 5.9379 5.60216 5.39833 5.99998 5.0005L8.80999 2.1905C9.72223 1.28065 10.9119 0.701056 12.1906 0.543477C13.4694 0.385898 14.7641 0.659335 15.87 1.3205L16.34 1.6005C16.7658 1.85749 17.272 1.94662 17.76 1.8505L19.5 1.5005" stroke="var(--stroke-0, #B7B6BB)" stroke-linecap="round" stroke-linejoin="round"/>
<path id="Vector_3" d="M19.5 0.500489L20.5 11.5005H18.5" stroke="var(--stroke-0, #B7B6BB)" stroke-linecap="round" stroke-linejoin="round"/>
<path id="Vector_4" d="M1.5 0.500489L0.500002 11.5005L7 18.0005C7.39783 18.3983 7.93739 18.6218 8.5 18.6218C9.06261 18.6218 9.60218 18.3983 10 18.0005C10.3978 17.6027 10.6213 17.0631 10.6213 16.5005C10.6213 15.9379 10.3978 15.3983 10 15.0005" stroke="var(--stroke-0, #B7B6BB)" stroke-linecap="round" stroke-linejoin="round"/>
<path id="Vector_5" d="M1.5 1.50049H9.5" stroke="var(--stroke-0, #B7B6BB)" stroke-linecap="round" stroke-linejoin="round"/>
</g>
</svg>
