<svg preserveAspectRatio="none" width="100%" height="100%" overflow="visible" style="display: block;" viewBox="0 0 17 21" fill="none" xmlns="http://www.w3.org/2000/svg">
<g id="Group 16">
<path id="Vector" d="M11.5 0.5H5.5C4.94772 0.5 4.5 0.947715 4.5 1.5V3.5C4.5 4.05228 4.94772 4.5 5.5 4.5H11.5C12.0523 4.5 12.5 4.05228 12.5 3.5V1.5C12.5 0.947715 12.0523 0.5 11.5 0.5Z" stroke="var(--stroke-0, #B7B6BB)" stroke-linecap="round" stroke-linejoin="round"/>
<path id="Vector_2" d="M12.5 2.5H14.5C15.0304 2.5 15.5391 2.71071 15.9142 3.08579C16.2893 3.46086 16.5 3.96957 16.5 4.5V18.5C16.5 19.0304 16.2893 19.5391 15.9142 19.9142C15.5391 20.2893 15.0304 20.5 14.5 20.5H2.5C1.96957 20.5 1.46086 20.2893 1.08579 19.9142C0.710714 19.5391 0.5 19.0304 0.5 18.5V4.5C0.5 3.96957 0.710714 3.46086 1.08579 3.08579C1.46086 2.71071 1.96957 2.5 2.5 2.5H4.5" stroke="var(--stroke-0, #B7B6BB)" stroke-linecap="round" stroke-linejoin="round"/>
<path id="Vector_3" d="M5.5 12.5L7.5 14.5L11.5 10.5" stroke="var(--stroke-0, #B7B6BB)" stroke-linecap="round" stroke-linejoin="round"/>
</g>
</svg>
