<svg preserveAspectRatio="none" width="100%" height="100%" overflow="visible" style="display: block;" viewBox="0 0 19 20" fill="none" xmlns="http://www.w3.org/2000/svg">
<g id="Group 19">
<path id="Vector" d="M8.5 3.5C11.5414 3.57835 14.5139 2.58751 16.9 0.700001C17.0486 0.588574 17.2252 0.520719 17.4102 0.504041C17.5952 0.487363 17.7811 0.52252 17.9472 0.605573C18.1133 0.688626 18.253 0.816294 18.3507 0.97427C18.4483 1.13225 18.5 1.31429 18.5 1.5V13.5C18.5 13.6857 18.4483 13.8678 18.3507 14.0257C18.253 14.1837 18.1133 14.3114 17.9472 14.3944C17.7811 14.4775 17.5952 14.5126 17.4102 14.496C17.2252 14.4793 17.0486 14.4114 16.9 14.3C14.5139 12.4125 11.5414 11.4217 8.5 11.5H2.5C1.96957 11.5 1.46086 11.2893 1.08579 10.9142C0.710714 10.5391 0.5 10.0304 0.5 9.5V5.5C0.5 4.96957 0.710714 4.46086 1.08579 4.08579C1.46086 3.71071 1.96957 3.5 2.5 3.5H8.5Z" stroke="var(--stroke-0, #DE0510)" stroke-linecap="round" stroke-linejoin="round"/>
<path id="Vector_2" d="M3.5 11.5C3.5 14.0964 4.34213 16.6228 5.9 18.7C6.21826 19.1243 6.69206 19.4049 7.21716 19.4799C7.74226 19.5549 8.27565 19.4183 8.7 19.1C9.12435 18.7817 9.40488 18.3079 9.4799 17.7828C9.55491 17.2577 9.41826 16.7243 9.1 16.3C8.06142 14.9152 7.5 13.231 7.5 11.5" stroke="var(--stroke-0, #DE0510)" stroke-linecap="round" stroke-linejoin="round"/>
<path id="Vector_3" d="M5.5 3.5V11.5" stroke="var(--stroke-0, #DE0510)" stroke-linecap="round" stroke-linejoin="round"/>
</g>
</svg>
