<svg preserveAspectRatio="none" width="100%" height="100%" overflow="visible" style="display: block;" viewBox="0 0 53 53" fill="none" xmlns="http://www.w3.org/2000/svg">
<g id="Group 1261153332">
<circle id="Ellipse 20" cx="26.5" cy="26.5" r="26.5" fill="var(--fill-0, white)"/>
<g id="Group 22">
<path id="Vector" d="M29.7005 21.3037C29.5172 21.4906 29.4146 21.7419 29.4146 22.0037C29.4146 22.2654 29.5172 22.5168 29.7005 22.7037L31.3005 24.3037C31.4874 24.4869 31.7387 24.5895 32.0005 24.5895C32.2622 24.5895 32.5135 24.4869 32.7005 24.3037L35.8065 21.1987C36.1265 20.8767 36.6695 20.9787 36.7895 21.4167C37.0916 22.5156 37.0745 23.6778 36.7402 24.7673C36.406 25.8568 35.7683 26.8286 34.9019 27.5689C34.0354 28.3093 32.9761 28.7875 31.8477 28.9478C30.7194 29.108 29.5688 28.9436 28.5305 28.4737L20.6205 36.3837C20.2226 36.7814 19.6831 37.0048 19.1206 37.0047C18.5581 37.0046 18.0187 36.781 17.621 36.3832C17.2233 35.9854 16.9999 35.4459 17 34.8833C17.0001 34.3208 17.2236 33.7814 17.6215 33.3837L25.5315 25.4737C25.0616 24.4354 24.8972 23.2848 25.0574 22.1564C25.2176 21.0281 25.6959 19.9687 26.4362 19.1023C27.1766 18.2359 28.1484 17.5982 29.2379 17.2639C30.3274 16.9296 31.4896 16.9126 32.5885 17.2147C33.0265 17.3347 33.1285 17.8767 32.8075 18.1987L29.7005 21.3037Z" stroke="var(--stroke-0, #DE0510)" stroke-linecap="round" stroke-linejoin="round"/>
</g>
</g>
</svg>
