<svg preserveAspectRatio="none" width="100%" height="100%" overflow="visible" style="display: block;" viewBox="0 0 21 21" fill="none" xmlns="http://www.w3.org/2000/svg">
<g id="Group 23">
<path id="Vector" d="M17.5 3.5L20.5 0.5" stroke="var(--stroke-0, #B7B6BB)" stroke-linecap="round" stroke-linejoin="round"/>
<path id="Vector_2" d="M0.5 20.5L3.5 17.5" stroke="var(--stroke-0, #B7B6BB)" stroke-linecap="round" stroke-linejoin="round"/>
<path id="Vector_3" d="M4.8 18.8C5.02297 19.0237 5.28791 19.2013 5.57964 19.3224C5.87136 19.4435 6.18413 19.5059 6.5 19.5059C6.81588 19.5059 7.12864 19.4435 7.42037 19.3224C7.71209 19.2013 7.97703 19.0237 8.2 18.8L10.5 16.5L4.5 10.5L2.2 12.8C1.97626 13.023 1.79873 13.2879 1.6776 13.5796C1.55646 13.8714 1.49411 14.1841 1.49411 14.5C1.49411 14.8159 1.55646 15.1286 1.6776 15.4204C1.79873 15.7121 1.97626 15.977 2.2 16.2L4.8 18.8Z" stroke="var(--stroke-0, #B7B6BB)" stroke-linecap="round" stroke-linejoin="round"/>
<path id="Vector_4" d="M6 12L8.5 9.5" stroke="var(--stroke-0, #B7B6BB)" stroke-linecap="round" stroke-linejoin="round"/>
<path id="Vector_5" d="M9 15L11.5 12.5" stroke="var(--stroke-0, #B7B6BB)" stroke-linecap="round" stroke-linejoin="round"/>
<path id="Vector_6" d="M10.5 4.5L16.5 10.5L18.8 8.2C19.0237 7.97703 19.2013 7.71209 19.3224 7.42037C19.4435 7.12864 19.5059 6.81588 19.5059 6.5C19.5059 6.18413 19.4435 5.87136 19.3224 5.57964C19.2013 5.28791 19.0237 5.02297 18.8 4.8L16.2 2.2C15.977 1.97626 15.7121 1.79873 15.4204 1.6776C15.1286 1.55646 14.8159 1.49411 14.5 1.49411C14.1841 1.49411 13.8714 1.55646 13.5796 1.6776C13.2879 1.79873 13.023 1.97626 12.8 2.2L10.5 4.5Z" stroke="var(--stroke-0, #B7B6BB)" stroke-linecap="round" stroke-linejoin="round"/>
</g>
</svg>
