<svg preserveAspectRatio="none" width="100%" height="100%" overflow="visible" style="display: block;" viewBox="0 0 53 53" fill="none" xmlns="http://www.w3.org/2000/svg">
<g id="Group 1261153324">
<circle id="Ellipse 12" cx="26.5" cy="26.5" r="26.5" fill="var(--fill-0, white)"/>
<g id="Group 15">
<path id="Vector" d="M30.2657 34.562L30.9707 37" stroke="var(--stroke-0, #DE0510)" stroke-linecap="round" stroke-linejoin="round"/>
<path id="Vector_2" d="M31.9707 31L35.7287 33.098" stroke="var(--stroke-0, #DE0510)" stroke-linecap="round" stroke-linejoin="round"/>
<path id="Vector_3" d="M33.9707 27.5L36.9967 26.902" stroke="var(--stroke-0, #DE0510)" stroke-linecap="round" stroke-linejoin="round"/>
<path id="Vector_4" d="M22.5807 21.3C21.8851 20.9734 21.0907 20.9262 20.3614 21.1681C19.632 21.4099 19.0233 21.9225 18.6607 22.6L17.2807 25.39C16.9571 26.0845 16.9115 26.8764 17.1532 27.6035C17.3949 28.3305 17.9057 28.9375 18.5807 29.3L25.4707 32.897C25.5881 32.9558 25.716 32.9908 25.8471 33.0002C25.9781 33.0096 26.1097 32.993 26.2343 32.9515C26.3589 32.91 26.4741 32.8443 26.5734 32.7583C26.6726 32.6722 26.7539 32.5675 26.8127 32.45L29.9187 26.239C30.0371 26.0019 30.0565 25.7274 29.9727 25.476C29.8889 25.2245 29.7087 25.0166 29.4717 24.898L22.5807 21.3Z" stroke="var(--stroke-0, #DE0510)" stroke-linecap="round" stroke-linejoin="round"/>
<path id="Vector_5" d="M22.9707 24V17" stroke="var(--stroke-0, #DE0510)" stroke-linecap="round" stroke-linejoin="round"/>
</g>
</g>
</svg>
