<svg preserveAspectRatio="none" width="100%" height="100%" overflow="visible" style="display: block;" viewBox="0 0 53 53" fill="none" xmlns="http://www.w3.org/2000/svg">
<g id="Group 1261153323">
<circle id="Ellipse 11" cx="26.5" cy="26.5" r="26.5" fill="var(--fill-0, white)"/>
<g id="Group 14">
<path id="Vector" d="M31 36V34C31 32.9391 30.5786 31.9217 29.8284 31.1716C29.0783 30.4214 28.0609 30 27 30H21C19.9391 30 18.9217 30.4214 18.1716 31.1716C17.4214 31.9217 17 32.9391 17 34V36" stroke="var(--stroke-0, #DE0510)" stroke-linecap="round" stroke-linejoin="round"/>
<path id="Vector_2" d="M31 18.1281C31.8578 18.3504 32.6174 18.8513 33.1597 19.5521C33.702 20.2529 33.9962 21.1139 33.9962 22.0001C33.9962 22.8862 33.702 23.7472 33.1597 24.448C32.6174 25.1488 31.8578 25.6497 31 25.8721" stroke="var(--stroke-0, #DE0510)" stroke-linecap="round" stroke-linejoin="round"/>
<path id="Vector_3" d="M37 36V34C36.9993 33.1137 36.7044 32.2528 36.1614 31.5523C35.6184 30.8519 34.8581 30.3516 34 30.13" stroke="var(--stroke-0, #DE0510)" stroke-linecap="round" stroke-linejoin="round"/>
<path id="Vector_4" d="M24 26C26.2091 26 28 24.2091 28 22C28 19.7909 26.2091 18 24 18C21.7909 18 20 19.7909 20 22C20 24.2091 21.7909 26 24 26Z" stroke="var(--stroke-0, #DE0510)" stroke-linecap="round" stroke-linejoin="round"/>
</g>
</g>
</svg>
