<svg preserveAspectRatio="none" width="100%" height="100%" overflow="visible" style="display: block;" viewBox="0 0 53 53" fill="none" xmlns="http://www.w3.org/2000/svg">
<g id="Group 1261153329">
<circle id="Ellipse 17" cx="26.5" cy="26.5" r="26.5" fill="var(--fill-0, white)"/>
<g id="Group 21">
<path id="Vector" d="M26 31.0005L28 33.0005C28.197 33.1975 28.4308 33.3537 28.6882 33.4603C28.9456 33.5669 29.2214 33.6218 29.5 33.6218C29.7786 33.6218 30.0544 33.5669 30.3118 33.4603C30.5692 33.3537 30.803 33.1975 31 33.0005C31.197 32.8035 31.3532 32.5697 31.4598 32.3123C31.5665 32.0549 31.6213 31.7791 31.6213 31.5005C31.6213 31.2219 31.5665 30.9461 31.4598 30.6887C31.3532 30.4313 31.197 30.1975 31 30.0005" stroke="var(--stroke-0, #DE0510)" stroke-linecap="round" stroke-linejoin="round"/>
<path id="Vector_2" d="M29 28.0005L31.5 30.5005C31.8978 30.8983 32.4374 31.1218 33 31.1218C33.5626 31.1218 34.1022 30.8983 34.5 30.5005C34.8978 30.1027 35.1213 29.5631 35.1213 29.0005C35.1213 28.4379 34.8978 27.8983 34.5 27.5005L30.62 23.6205C30.0575 23.0587 29.295 22.7431 28.5 22.7431C27.705 22.7431 26.9425 23.0587 26.38 23.6205L25.5 24.5005C25.1022 24.8983 24.5626 25.1218 24 25.1218C23.4374 25.1218 22.8978 24.8983 22.5 24.5005C22.1022 24.1027 21.8787 23.5631 21.8787 23.0005C21.8787 22.4379 22.1022 21.8983 22.5 21.5005L25.31 18.6905C26.2222 17.7806 27.4119 17.2011 28.6906 17.0435C29.9694 16.8859 31.2641 17.1593 32.37 17.8205L32.84 18.1005C33.2658 18.3575 33.772 18.4466 34.26 18.3505L36 18.0005" stroke="var(--stroke-0, #DE0510)" stroke-linecap="round" stroke-linejoin="round"/>
<path id="Vector_3" d="M36 17.0005L37 28.0005H35" stroke="var(--stroke-0, #DE0510)" stroke-linecap="round" stroke-linejoin="round"/>
<path id="Vector_4" d="M18 17.0005L17 28.0005L23.5 34.5005C23.8978 34.8983 24.4374 35.1218 25 35.1218C25.5626 35.1218 26.1022 34.8983 26.5 34.5005C26.8978 34.1027 27.1213 33.5631 27.1213 33.0005C27.1213 32.4379 26.8978 31.8983 26.5 31.5005" stroke="var(--stroke-0, #DE0510)" stroke-linecap="round" stroke-linejoin="round"/>
<path id="Vector_5" d="M18 18.0005H26" stroke="var(--stroke-0, #DE0510)" stroke-linecap="round" stroke-linejoin="round"/>
</g>
</g>
</svg>
