<svg preserveAspectRatio="none" width="100%" height="100%" overflow="visible" style="display: block;" viewBox="0 0 20.9968 21.0001" fill="none" xmlns="http://www.w3.org/2000/svg">
<g id="Group 15">
<path id="Vector" d="M13.7657 18.062L14.4707 20.5" stroke="var(--stroke-0, black)" stroke-linecap="round" stroke-linejoin="round"/>
<path id="Vector_2" d="M15.4707 14.5L19.2287 16.598" stroke="var(--stroke-0, black)" stroke-linecap="round" stroke-linejoin="round"/>
<path id="Vector_3" d="M17.4707 11L20.4967 10.402" stroke="var(--stroke-0, black)" stroke-linecap="round" stroke-linejoin="round"/>
<path id="Vector_4" d="M6.08067 4.79998C5.3851 4.4734 4.59073 4.42619 3.86137 4.66807C3.13201 4.90995 2.52327 5.42248 2.16067 6.09998L0.780675 8.88998C0.4571 9.58446 0.4115 10.3764 0.653225 11.1035C0.89495 11.8305 1.40568 12.4375 2.08067 12.8L8.97067 16.397C9.08814 16.4558 9.21603 16.4908 9.34705 16.5002C9.47807 16.5096 9.60965 16.493 9.73428 16.4515C9.8589 16.41 9.97412 16.3443 10.0734 16.2583C10.1726 16.1722 10.2539 16.0675 10.3127 15.95L13.4187 9.73898C13.5371 9.50185 13.5565 9.22741 13.4727 8.97596C13.3889 8.72451 13.2087 8.51663 12.9717 8.39798L6.08067 4.79998Z" stroke="var(--stroke-0, black)" stroke-linecap="round" stroke-linejoin="round"/>
<path id="Vector_5" d="M6.47067 7.5V0.5" stroke="var(--stroke-0, black)" stroke-linecap="round" stroke-linejoin="round"/>
</g>
</svg>
