<svg preserveAspectRatio="none" width="100%" height="100%" overflow="visible" style="display: block;" viewBox="0 0 21.0061 20.9983" fill="none" xmlns="http://www.w3.org/2000/svg">
<g id="Group 17">
<path id="Vector" d="M2.36093 7.11521C2.21498 6.45774 2.23739 5.77406 2.42609 5.12755C2.6148 4.48105 2.96368 3.89266 3.4404 3.41694C3.91712 2.94121 4.50624 2.59356 5.15314 2.40621C5.80004 2.21886 6.48377 2.19788 7.14093 2.34521C7.50264 1.77952 8.00094 1.31397 8.58989 0.9915C9.17883 0.669027 9.83948 0.5 10.5109 0.5C11.1824 0.5 11.843 0.669027 12.432 0.9915C13.0209 1.31397 13.5192 1.77952 13.8809 2.34521C14.5391 2.19724 15.224 2.21812 15.8719 2.40593C16.5199 2.59373 17.1098 2.94236 17.5868 3.41937C18.0638 3.89638 18.4124 4.48629 18.6002 5.13422C18.788 5.78214 18.8089 6.46705 18.6609 7.12521C19.2266 7.48692 19.6922 7.98522 20.0146 8.57417C20.3371 9.16311 20.5061 9.82376 20.5061 10.4952C20.5061 11.1667 20.3371 11.8273 20.0146 12.4163C19.6922 13.0052 19.2266 13.5035 18.6609 13.8652C18.8083 14.5224 18.7873 15.2061 18.5999 15.853C18.4126 16.4999 18.0649 17.089 17.5892 17.5657C17.1135 18.0425 16.5251 18.3914 15.8786 18.5801C15.2321 18.7688 14.5484 18.7912 13.8909 18.6452C13.5297 19.2131 13.031 19.6806 12.4411 20.0045C11.8511 20.3284 11.189 20.4983 10.5159 20.4983C9.84291 20.4983 9.18076 20.3284 8.59081 20.0045C8.00086 19.6806 7.50217 19.2131 7.14093 18.6452C6.48377 18.7925 5.80004 18.7716 5.15314 18.5842C4.50624 18.3969 3.91712 18.0492 3.4404 17.5735C2.96368 17.0978 2.6148 16.5094 2.42609 15.8629C2.23739 15.2164 2.21498 14.5327 2.36093 13.8752C1.79089 13.5145 1.32135 13.0154 0.995984 12.4244C0.670618 11.8335 0.5 11.1698 0.5 10.4952C0.5 9.82061 0.670618 9.15696 0.995984 8.566C1.32135 7.97504 1.79089 7.47597 2.36093 7.11521Z" stroke="var(--stroke-0, #DE0510)" stroke-linecap="round" stroke-linejoin="round"/>
<path id="Vector_2" d="M6.51094 6.49521H14.5109" stroke="var(--stroke-0, #DE0510)" stroke-linecap="round" stroke-linejoin="round"/>
<path id="Vector_3" d="M6.51094 10.4952H14.5109" stroke="var(--stroke-0, #DE0510)" stroke-linecap="round" stroke-linejoin="round"/>
<path id="Vector_4" d="M11.5109 15.4952L6.51094 14.4952H7.51094C8.57181 14.4952 9.58922 14.0738 10.3394 13.3236C11.0895 12.5735 11.5109 11.5561 11.5109 10.4952C11.5109 9.43434 11.0895 8.41693 10.3394 7.66678C9.58922 6.91664 8.57181 6.49521 7.51094 6.49521" stroke="var(--stroke-0, #DE0510)" stroke-linecap="round" stroke-linejoin="round"/>
</g>
</svg>
