<svg preserveAspectRatio="none" width="100%" height="100%" overflow="visible" style="display: block;" viewBox="0 0 21 19" fill="none" xmlns="http://www.w3.org/2000/svg">
<g id="Group 14">
<path id="Vector" d="M14.5 18.5V16.5C14.5 15.4391 14.0786 14.4217 13.3284 13.6716C12.5783 12.9214 11.5609 12.5 10.5 12.5H4.5C3.43913 12.5 2.42172 12.9214 1.67157 13.6716C0.921427 14.4217 0.5 15.4391 0.5 16.5V18.5" stroke="var(--stroke-0, #B7B6BB)" stroke-linecap="round" stroke-linejoin="round"/>
<path id="Vector_2" d="M14.5 0.628052C15.3578 0.850421 16.1174 1.35132 16.6597 2.05211C17.202 2.75291 17.4962 3.61394 17.4962 4.50005C17.4962 5.38616 17.202 6.24719 16.6597 6.94799C16.1174 7.64879 15.3578 8.14968 14.5 8.37205" stroke="var(--stroke-0, #B7B6BB)" stroke-linecap="round" stroke-linejoin="round"/>
<path id="Vector_3" d="M20.5 18.5V16.5C20.4993 15.6137 20.2044 14.7528 19.6614 14.0523C19.1184 13.3519 18.3581 12.8516 17.5 12.63" stroke="var(--stroke-0, #B7B6BB)" stroke-linecap="round" stroke-linejoin="round"/>
<path id="Vector_4" d="M7.5 8.5C9.70914 8.5 11.5 6.70914 11.5 4.5C11.5 2.29086 9.70914 0.5 7.5 0.5C5.29086 0.5 3.5 2.29086 3.5 4.5C3.5 6.70914 5.29086 8.5 7.5 8.5Z" stroke="var(--stroke-0, #B7B6BB)" stroke-linecap="round" stroke-linejoin="round"/>
</g>
</svg>
