<svg preserveAspectRatio="none" width="100%" height="100%" overflow="visible" style="display: block;" viewBox="0 0 53 53" fill="none" xmlns="http://www.w3.org/2000/svg">
<g id="Group 1261153331">
<circle id="Ellipse 19" cx="26.5" cy="26.5" r="26.5" fill="var(--fill-0, white)"/>
<g id="Group 23">
<path id="Vector" d="M34 20L37 17" stroke="var(--stroke-0, #DE0510)" stroke-linecap="round" stroke-linejoin="round"/>
<path id="Vector_2" d="M17 37L20 34" stroke="var(--stroke-0, #DE0510)" stroke-linecap="round" stroke-linejoin="round"/>
<path id="Vector_3" d="M21.3 35.3C21.523 35.5237 21.7879 35.7013 22.0796 35.8224C22.3714 35.9435 22.6841 36.0059 23 36.0059C23.3159 36.0059 23.6286 35.9435 23.9204 35.8224C24.2121 35.7013 24.477 35.5237 24.7 35.3L27 33L21 27L18.7 29.3C18.4763 29.523 18.2987 29.7879 18.1776 30.0796C18.0565 30.3714 17.9941 30.6841 17.9941 31C17.9941 31.3159 18.0565 31.6286 18.1776 31.9204C18.2987 32.2121 18.4763 32.477 18.7 32.7L21.3 35.3Z" stroke="var(--stroke-0, #DE0510)" stroke-linecap="round" stroke-linejoin="round"/>
<path id="Vector_4" d="M22.5 28.5L25 26" stroke="var(--stroke-0, #DE0510)" stroke-linecap="round" stroke-linejoin="round"/>
<path id="Vector_5" d="M25.5 31.5L28 29" stroke="var(--stroke-0, #DE0510)" stroke-linecap="round" stroke-linejoin="round"/>
<path id="Vector_6" d="M27 21L33 27L35.3 24.7C35.5237 24.477 35.7013 24.2121 35.8224 23.9204C35.9435 23.6286 36.0059 23.3159 36.0059 23C36.0059 22.6841 35.9435 22.3714 35.8224 22.0796C35.7013 21.7879 35.5237 21.523 35.3 21.3L32.7 18.7C32.477 18.4763 32.2121 18.2987 31.9204 18.1776C31.6286 18.0565 31.3159 17.9941 31 17.9941C30.6841 17.9941 30.3714 18.0565 30.0796 18.1776C29.7879 18.2987 29.523 18.4763 29.3 18.7L27 21Z" stroke="var(--stroke-0, #DE0510)" stroke-linecap="round" stroke-linejoin="round"/>
</g>
</g>
</svg>
