<svg preserveAspectRatio="none" width="100%" height="100%" overflow="visible" style="display: block;" viewBox="0 0 21.0023 21.0023" fill="none" xmlns="http://www.w3.org/2000/svg">
<g id="Group 18">
<path id="Vector" d="M13.0358 20.1885C13.0738 20.2832 13.1398 20.364 13.2251 20.42C13.3103 20.4761 13.4107 20.5048 13.5126 20.5021C13.6146 20.4995 13.7134 20.4658 13.7956 20.4054C13.8779 20.3451 13.9397 20.261 13.9728 20.1645L20.4728 1.1645C20.5048 1.07589 20.5109 0.980003 20.4904 0.888052C20.4699 0.796101 20.4236 0.711891 20.357 0.645275C20.2904 0.578659 20.2062 0.532393 20.1143 0.51189C20.0223 0.491386 19.9264 0.497494 19.8378 0.529498L0.837805 7.0295C0.741302 7.06259 0.657231 7.12442 0.596877 7.20667C0.536524 7.28892 0.502776 7.38767 0.500164 7.48966C0.497552 7.59164 0.5262 7.69199 0.582263 7.77722C0.638327 7.86246 0.719122 7.92851 0.813805 7.9665L8.74381 11.1465C8.99449 11.2469 9.22226 11.397 9.41337 11.5877C9.60448 11.7785 9.75499 12.006 9.85581 12.2565L13.0358 20.1885Z" stroke="var(--stroke-0, #B7B6BB)" stroke-linecap="round" stroke-linejoin="round"/>
<path id="Vector_2" d="M20.3538 0.649506L9.41382 11.5885" stroke="var(--stroke-0, #B7B6BB)" stroke-linecap="round" stroke-linejoin="round"/>
</g>
</svg>
