<svg width="20" height="20" viewBox="0 0 20 20" fill="none" xmlns="http://www.w3.org/2000/svg">
<path d="M10 0C4.477 0 0 4.477 0 10C0 12.159 0.688 14.15 1.875 15.75L0 20L4.5 18.188C6.05 19.25 7.95 20 10 20C15.523 20 20 15.523 20 10C20 4.477 15.523 0 10 0ZM10 18C8.05 18 6.25 17.4 4.75 16.35L4.5 16.15L1.9 16.85L2.65 14.35L2.4 14.1C1.3 12.6 0.7 10.85 0.7 9C0.7 4.58 4.58 0.7 9 0.7C13.42 0.7 17.3 4.58 17.3 9C17.3 13.42 13.42 17.3 9 17.3H10V18Z" fill="#25D366"/>
<path d="M13.5 11.5C13.3 11.2 12.5 10.7 12.2 10.6C11.9 10.5 11.7 10.45 11.5 10.7C11.3 10.95 10.8 11.5 10.6 11.7C10.4 11.9 10.2 11.9 9.9 11.6C9.6 11.3 8.9 10.6 8.4 10.1C8.1 9.8 7.8 9.85 7.6 10.1C7.4 10.35 6.9 11 6.7 11.2C6.5 11.4 6.3 11.4 6.1 11.2C5.9 11 5.3 10.4 4.8 9.9C4.3 9.4 4.1 9.2 4.3 8.9C4.5 8.6 4.5 8.4 4.6 8.2C4.7 8 4.7 7.9 4.8 7.7C4.9 7.5 4.8 7.3 4.7 7.1C4.6 6.9 4 5.5 3.7 4.9C3.4 4.3 3.1 4.4 2.9 4.4C2.7 4.4 2.5 4.4 2.3 4.4C2.1 4.4 1.8 4.5 1.6 4.7C1.4 4.9 0.9 5.4 0.9 6.4C0.9 7.4 1.6 8.3 1.7 8.5C1.8 8.7 3.2 11.1 5.3 12.1C6.1 12.5 6.7 12.7 7.2 12.9C7.9 13.2 8.5 13.1 9 13C9.5 12.9 10.5 12.3 10.7 11.6C10.9 10.9 10.9 10.3 10.8 10.2C10.7 10.1 10.5 10.1 10.3 10.1H13.5Z" fill="#25D366"/>
</svg>
